<svg width="150" height="80" viewBox="0 0 93 40" fill="none" xmlns="http://www.w3.org/2000/svg">
<path d="M17.5 15.25L16.5 18.25L28 18.25L27.2433 20.8983C26.5074 23.4741 24.1531 25.25 21.4742 25.25L13 25.25L12 28.25L11 30.75L9 35.25L5 26.75L10.5 15.25H17.5Z" fill="url(#paint0_linear_2310_1102)"/>
<path d="M0 4.75H33L32.3102 7.31069C31.6046 9.92995 29.2294 11.75 26.5167 11.75H8.5L6 18.25L0 4.75Z" fill="url(#paint1_linear_2310_1102)"/>
<path d="M38.6485 5.94298V4.14233H48.1091V5.94298H44.4441V16H42.3135V5.94298H38.6485ZM49.9329 16V4.14233H57.6451V5.94298H52.081V9.16215H57.2456V10.9628H52.081V14.1993H57.6914V16H49.9329ZM69.9862 8.14313H67.8208C67.759 7.78802 67.6451 7.47344 67.4792 7.19938C67.3132 6.92147 67.1067 6.68601 66.8597 6.49302C66.6126 6.30002 66.3308 6.15528 66.0143 6.05878C65.7017 5.95842 65.3639 5.90824 65.0011 5.90824C64.3565 5.90824 63.7852 6.07036 63.2873 6.39459C62.7894 6.71496 62.3995 7.18587 62.1177 7.80732C61.836 8.42491 61.6951 9.17952 61.6951 10.0712C61.6951 10.9782 61.836 11.7425 62.1177 12.364C62.4034 12.9815 62.7932 13.4486 63.2873 13.7651C63.7852 14.0778 64.3546 14.2341 64.9953 14.2341C65.3504 14.2341 65.6824 14.1878 65.9912 14.0951C66.3038 13.9986 66.5837 13.8577 66.8307 13.6725C67.0816 13.4872 67.292 13.2595 67.4618 12.9893C67.6355 12.7191 67.7552 12.4103 67.8208 12.0629L69.9862 12.0745C69.9051 12.638 69.7295 13.1668 69.4593 13.6609C69.193 14.155 68.8437 14.5911 68.4113 14.9694C67.979 15.3438 67.4734 15.6372 66.8944 15.8495C66.3154 16.0579 65.6727 16.1621 64.9664 16.1621C63.9242 16.1621 62.9939 15.9209 62.1756 15.4384C61.3573 14.9559 60.7127 14.2592 60.2418 13.3482C59.7709 12.4373 59.5355 11.3449 59.5355 10.0712C59.5355 8.79353 59.7728 7.70117 60.2476 6.79409C60.7224 5.88315 61.3689 5.18644 62.1872 4.70395C63.0055 4.22146 63.9319 3.98021 64.9664 3.98021C65.6264 3.98021 66.2401 4.07285 66.8075 4.25813C67.375 4.4434 67.8806 4.71553 68.3245 5.0745C68.7684 5.42961 69.1331 5.86578 69.4188 6.38301C69.7083 6.89638 69.8974 7.48309 69.9862 8.14313ZM71.9533 16V4.14233H74.1013V9.16215H79.5959V4.14233H81.7498V16H79.5959V10.9628H74.1013V16H71.9533ZM39.1696 36V24.1423H46.8817V25.943H41.3176V29.1622H46.4822V30.9628H41.3176V34.1993H46.928V36H39.1696ZM53.0913 36H49.0731V24.1423H53.1724C54.3497 24.1423 55.361 24.3797 56.2063 24.8545C57.0555 25.3254 57.7078 26.0028 58.1633 26.8867C58.6187 27.7707 58.8465 28.8283 58.8465 30.0596C58.8465 31.2948 58.6168 32.3562 58.1575 33.244C57.702 34.1318 57.0439 34.8131 56.1831 35.2878C55.3262 35.7626 54.2956 36 53.0913 36ZM51.2212 34.1414H52.9871C53.8131 34.1414 54.5021 33.9909 55.0541 33.6898C55.6061 33.3849 56.021 32.9314 56.2989 32.3292C56.5768 31.7232 56.7158 30.9667 56.7158 30.0596C56.7158 29.1525 56.5768 28.3998 56.2989 27.8015C56.021 27.1994 55.6099 26.7497 55.0657 26.4525C54.5253 26.1514 53.8537 26.0009 53.0508 26.0009H51.2212V34.1414ZM68.3621 24.1423H70.5102V31.8892C70.5102 32.7384 70.3095 33.4853 69.908 34.1299C69.5104 34.7745 68.9508 35.2782 68.229 35.641C67.5072 36 66.6638 36.1795 65.6988 36.1795C64.7299 36.1795 63.8846 36 63.1628 35.641C62.441 35.2782 61.8813 34.7745 61.4837 34.1299C61.0862 33.4853 60.8874 32.7384 60.8874 31.8892V24.1423H63.0354V31.7097C63.0354 32.2038 63.1435 32.6438 63.3597 33.0298C63.5797 33.4158 63.8885 33.7188 64.286 33.9388C64.6836 34.155 65.1545 34.263 65.6988 34.263C66.243 34.263 66.7139 34.155 67.1115 33.9388C67.5129 33.7188 67.8217 33.4158 68.0379 33.0298C68.254 32.6438 68.3621 32.2038 68.3621 31.7097V24.1423ZM72.8449 36V24.1423H80.4413V25.943H74.993V29.1622H79.9202V30.9628H74.993V36H72.8449ZM81.5877 24.1423H84.0136L86.9143 29.388H87.0301L89.9309 24.1423H92.3568L88.0434 31.5765V36H85.9011V31.5765L81.5877 24.1423Z" fill="url(#paint2_linear_2310_1102)"/>
<defs>
<linearGradient id="paint0_linear_2310_1102" x1="5" y1="25.25" x2="28" y2="25.25" gradientUnits="userSpaceOnUse">
<stop stop-color="#1E3C72"/>
<stop offset="0.01" stop-color="#1E3C72"/>
<stop offset="1" stop-color="#2A5298"/>
</linearGradient>
<linearGradient id="paint1_linear_2310_1102" x1="0" y1="11.5" x2="33" y2="11.5" gradientUnits="userSpaceOnUse">
<stop stop-color="#1E3C72"/>
<stop offset="0.01" stop-color="#1E3C72"/>
<stop offset="1" stop-color="#2A5298"/>
</linearGradient>
<linearGradient id="paint2_linear_2310_1102" x1="38" y1="20" x2="93" y2="20" gradientUnits="userSpaceOnUse">
<stop stop-color="#1E3C72"/>
<stop offset="0.01" stop-color="#1E3C72"/>
<stop offset="1" stop-color="#2A5298"/>
</linearGradient>
</defs>
</svg>
